<mxfile host="app.diagrams.net" modified="2023-07-23T15:38:16.595Z" agent="Mozilla/5.0 (Windows NT 10.0; Win64; x64; rv:109.0) Gecko/20100101 Firefox/115.0" etag="8Mp4UucaWpz9kFvkHZlk" version="21.5.2" type="device">
  <diagram id="wEyE0EljjdfhALlqWIyy" name="Halaman-1">
    <mxGraphModel dx="1050" dy="558" grid="0" gridSize="10" guides="1" tooltips="1" connect="1" arrows="1" fold="1" page="1" pageScale="1" pageWidth="1169" pageHeight="827" math="0" shadow="0">
      <root>
        <mxCell id="0" />
        <mxCell id="1" parent="0" />
        <mxCell id="iNC4TQKwrpO1AQcwmITD-32" style="edgeStyle=orthogonalEdgeStyle;rounded=0;orthogonalLoop=1;jettySize=auto;html=1;exitX=0.5;exitY=1;exitDx=0;exitDy=0;exitPerimeter=0;entryX=0.5;entryY=0;entryDx=0;entryDy=0;fontFamily=Times New Roman;" parent="1" source="iNC4TQKwrpO1AQcwmITD-3" target="iNC4TQKwrpO1AQcwmITD-4" edge="1">
          <mxGeometry relative="1" as="geometry" />
        </mxCell>
        <mxCell id="iNC4TQKwrpO1AQcwmITD-3" value="&lt;i&gt;&lt;b&gt;Start&lt;/b&gt;&lt;/i&gt;" style="strokeWidth=1;html=1;shape=mxgraph.flowchart.terminator;whiteSpace=wrap;" parent="1" vertex="1">
          <mxGeometry x="62.5" y="21" width="75" height="39" as="geometry" />
        </mxCell>
        <mxCell id="iNC4TQKwrpO1AQcwmITD-33" style="edgeStyle=orthogonalEdgeStyle;rounded=0;orthogonalLoop=1;jettySize=auto;html=1;exitX=0.5;exitY=1;exitDx=0;exitDy=0;entryX=0.5;entryY=0;entryDx=0;entryDy=0;fontFamily=Times New Roman;" parent="1" source="iNC4TQKwrpO1AQcwmITD-4" target="iNC4TQKwrpO1AQcwmITD-6" edge="1">
          <mxGeometry relative="1" as="geometry" />
        </mxCell>
        <mxCell id="iNC4TQKwrpO1AQcwmITD-4" value="&lt;b&gt;&lt;font face=&quot;Times New Roman&quot;&gt;Inisialisasi ESP32&lt;/font&gt;&lt;/b&gt;" style="rounded=0;whiteSpace=wrap;html=1;" parent="1" vertex="1">
          <mxGeometry x="48" y="96" width="104" height="41" as="geometry" />
        </mxCell>
        <mxCell id="iNC4TQKwrpO1AQcwmITD-34" style="edgeStyle=orthogonalEdgeStyle;rounded=0;orthogonalLoop=1;jettySize=auto;html=1;exitX=0.5;exitY=1;exitDx=0;exitDy=0;entryX=0.5;entryY=0;entryDx=0;entryDy=0;entryPerimeter=0;fontFamily=Times New Roman;" parent="1" source="iNC4TQKwrpO1AQcwmITD-6" target="iNC4TQKwrpO1AQcwmITD-8" edge="1">
          <mxGeometry relative="1" as="geometry" />
        </mxCell>
        <mxCell id="iNC4TQKwrpO1AQcwmITD-6" value="&lt;b&gt;&lt;font face=&quot;Times New Roman&quot;&gt;Menghubungkan ESP32 ke &lt;i&gt;WiFi&lt;/i&gt;&lt;br&gt;&lt;/font&gt;&lt;/b&gt;" style="rounded=0;whiteSpace=wrap;html=1;" parent="1" vertex="1">
          <mxGeometry x="48" y="160" width="104" height="50" as="geometry" />
        </mxCell>
        <mxCell id="iNC4TQKwrpO1AQcwmITD-30" style="edgeStyle=orthogonalEdgeStyle;rounded=0;orthogonalLoop=1;jettySize=auto;html=1;exitX=0.5;exitY=1;exitDx=0;exitDy=0;fontFamily=Times New Roman;entryX=0.5;entryY=0;entryDx=0;entryDy=0;" parent="1" source="iNC4TQKwrpO1AQcwmITD-7" target="HlXd1qT1jkH5dcbXWJ3G-3" edge="1">
          <mxGeometry relative="1" as="geometry">
            <mxPoint x="103.5" y="452" as="targetPoint" />
          </mxGeometry>
        </mxCell>
        <mxCell id="iNC4TQKwrpO1AQcwmITD-7" value="&lt;font face=&quot;Times New Roman&quot;&gt;&lt;b&gt;ESP32 membaca&lt;br&gt;&lt;i&gt;sensor readings&lt;br&gt;&lt;/i&gt;(&lt;i&gt;temp&lt;/i&gt;, &lt;i&gt;humi&lt;/i&gt;, &lt;i&gt;lux&lt;/i&gt;)&lt;br&gt;&lt;/b&gt;&lt;/font&gt;" style="rounded=0;whiteSpace=wrap;html=1;" parent="1" vertex="1">
          <mxGeometry x="43.5" y="347" width="113" height="54" as="geometry" />
        </mxCell>
        <mxCell id="iNC4TQKwrpO1AQcwmITD-36" style="edgeStyle=orthogonalEdgeStyle;rounded=0;orthogonalLoop=1;jettySize=auto;html=1;exitX=1;exitY=0.5;exitDx=0;exitDy=0;exitPerimeter=0;entryX=1;entryY=0.5;entryDx=0;entryDy=0;fontFamily=Times New Roman;" parent="1" source="iNC4TQKwrpO1AQcwmITD-8" target="iNC4TQKwrpO1AQcwmITD-6" edge="1">
          <mxGeometry relative="1" as="geometry" />
        </mxCell>
        <mxCell id="iNC4TQKwrpO1AQcwmITD-58" style="edgeStyle=orthogonalEdgeStyle;rounded=0;orthogonalLoop=1;jettySize=auto;html=1;exitX=0.5;exitY=1;exitDx=0;exitDy=0;exitPerimeter=0;fontFamily=Times New Roman;entryX=0.5;entryY=0;entryDx=0;entryDy=0;" parent="1" source="iNC4TQKwrpO1AQcwmITD-8" edge="1">
          <mxGeometry relative="1" as="geometry">
            <mxPoint x="100.00000000000011" y="346" as="targetPoint" />
          </mxGeometry>
        </mxCell>
        <mxCell id="iNC4TQKwrpO1AQcwmITD-8" value="&lt;b&gt;&lt;font face=&quot;Times New Roman&quot;&gt;Koneksi Internet ESP32 tersambung?&lt;/font&gt;&lt;/b&gt;" style="strokeWidth=1;html=1;shape=mxgraph.flowchart.decision;whiteSpace=wrap;" parent="1" vertex="1">
          <mxGeometry x="10" y="240" width="180" height="80" as="geometry" />
        </mxCell>
        <mxCell id="iNC4TQKwrpO1AQcwmITD-31" style="edgeStyle=orthogonalEdgeStyle;rounded=0;orthogonalLoop=1;jettySize=auto;html=1;exitX=0.5;exitY=1;exitDx=0;exitDy=0;exitPerimeter=0;entryX=0.5;entryY=0;entryDx=0;entryDy=0;fontFamily=Times New Roman;" parent="1" source="iNC4TQKwrpO1AQcwmITD-12" target="iNC4TQKwrpO1AQcwmITD-24" edge="1">
          <mxGeometry relative="1" as="geometry" />
        </mxCell>
        <mxCell id="iNC4TQKwrpO1AQcwmITD-94" style="edgeStyle=orthogonalEdgeStyle;rounded=0;orthogonalLoop=1;jettySize=auto;html=1;exitX=1;exitY=0.5;exitDx=0;exitDy=0;exitPerimeter=0;fontFamily=Times New Roman;entryX=0.5;entryY=0;entryDx=0;entryDy=0;" parent="1" source="iNC4TQKwrpO1AQcwmITD-12" target="HlXd1qT1jkH5dcbXWJ3G-53" edge="1">
          <mxGeometry relative="1" as="geometry">
            <mxPoint x="467.5000000000002" y="190" as="targetPoint" />
          </mxGeometry>
        </mxCell>
        <mxCell id="iNC4TQKwrpO1AQcwmITD-12" value="&lt;font face=&quot;Times New Roman&quot;&gt;&lt;b&gt;&lt;i&gt;Take over conditions&lt;br&gt;(Take over switch)&lt;br&gt;&lt;/i&gt;&lt;/b&gt;&lt;/font&gt;" style="strokeWidth=1;html=1;shape=mxgraph.flowchart.decision;whiteSpace=wrap;" parent="1" vertex="1">
          <mxGeometry x="218" y="111" width="206" height="79" as="geometry" />
        </mxCell>
        <mxCell id="HlXd1qT1jkH5dcbXWJ3G-16" style="edgeStyle=orthogonalEdgeStyle;rounded=0;orthogonalLoop=1;jettySize=auto;html=1;entryX=0.5;entryY=0;entryDx=0;entryDy=0;" parent="1" source="iNC4TQKwrpO1AQcwmITD-13" target="GGrTqqdoMvf6s02qWDhr-1" edge="1">
          <mxGeometry relative="1" as="geometry" />
        </mxCell>
        <mxCell id="iNC4TQKwrpO1AQcwmITD-13" value="&lt;font face=&quot;Times New Roman&quot;&gt;&lt;b&gt;&lt;i&gt;Sensor readings commands&lt;br&gt;&lt;/i&gt;&lt;/b&gt;&lt;/font&gt;" style="strokeWidth=1;html=1;shape=mxgraph.flowchart.decision;whiteSpace=wrap;" parent="1" vertex="1">
          <mxGeometry x="525" y="111" width="219" height="70" as="geometry" />
        </mxCell>
        <mxCell id="iNC4TQKwrpO1AQcwmITD-19" value="&lt;i&gt;&lt;b&gt;Stop&lt;/b&gt;&lt;/i&gt;" style="strokeWidth=1;html=1;shape=mxgraph.flowchart.terminator;whiteSpace=wrap;" parent="1" vertex="1">
          <mxGeometry x="774.5" y="496.5" width="100" height="60" as="geometry" />
        </mxCell>
        <mxCell id="iNC4TQKwrpO1AQcwmITD-39" style="edgeStyle=orthogonalEdgeStyle;rounded=0;orthogonalLoop=1;jettySize=auto;html=1;exitX=0.5;exitY=1;exitDx=0;exitDy=0;entryX=0.5;entryY=0;entryDx=0;entryDy=0;fontFamily=Times New Roman;" parent="1" source="iNC4TQKwrpO1AQcwmITD-24" target="iNC4TQKwrpO1AQcwmITD-25" edge="1">
          <mxGeometry relative="1" as="geometry" />
        </mxCell>
        <mxCell id="iNC4TQKwrpO1AQcwmITD-24" value="&lt;font face=&quot;Times New Roman&quot;&gt;&lt;b&gt;Aktuator beroperasi secara manual dengan &lt;i&gt;toggle switch&lt;br&gt;&lt;/i&gt;&lt;/b&gt;&lt;/font&gt;" style="rounded=0;whiteSpace=wrap;html=1;" parent="1" vertex="1">
          <mxGeometry x="270" y="218" width="102" height="60" as="geometry" />
        </mxCell>
        <mxCell id="iNC4TQKwrpO1AQcwmITD-40" style="edgeStyle=orthogonalEdgeStyle;rounded=0;orthogonalLoop=1;jettySize=auto;html=1;exitX=0.5;exitY=1;exitDx=0;exitDy=0;entryX=0.5;entryY=0;entryDx=0;entryDy=0;fontFamily=Times New Roman;" parent="1" source="iNC4TQKwrpO1AQcwmITD-25" target="HlXd1qT1jkH5dcbXWJ3G-55" edge="1">
          <mxGeometry relative="1" as="geometry">
            <mxPoint x="321" y="391.5" as="targetPoint" />
          </mxGeometry>
        </mxCell>
        <mxCell id="iNC4TQKwrpO1AQcwmITD-25" value="&lt;div&gt;&lt;b&gt;&lt;font face=&quot;Times New Roman&quot;&gt;&lt;i&gt;Updated states, &lt;br&gt;sensor reading&lt;/i&gt;s&lt;br&gt; pada &lt;i&gt;LCD&lt;/i&gt; 20x4&lt;br&gt;&lt;/font&gt;&lt;/b&gt;&lt;/div&gt;&lt;b&gt;&lt;font face=&quot;Times New Roman&quot;&gt;&lt;/font&gt;&lt;/b&gt;" style="shape=parallelogram;perimeter=parallelogramPerimeter;whiteSpace=wrap;html=1;fixedSize=1;shadow=0;rounded=0;sketch=0;gradientColor=none;strokeWidth=1;" parent="1" vertex="1">
          <mxGeometry x="262" y="307" width="118" height="50.5" as="geometry" />
        </mxCell>
        <mxCell id="iNC4TQKwrpO1AQcwmITD-50" style="edgeStyle=orthogonalEdgeStyle;rounded=0;orthogonalLoop=1;jettySize=auto;html=1;exitX=0.5;exitY=1;exitDx=0;exitDy=0;fontFamily=Times New Roman;entryX=0;entryY=0.5;entryDx=0;entryDy=0;entryPerimeter=0;" parent="1" source="HlXd1qT1jkH5dcbXWJ3G-56" target="iNC4TQKwrpO1AQcwmITD-19" edge="1">
          <mxGeometry relative="1" as="geometry">
            <mxPoint x="563.5" y="466.4999999999999" as="sourcePoint" />
          </mxGeometry>
        </mxCell>
        <mxCell id="iNC4TQKwrpO1AQcwmITD-60" value="Ya" style="text;html=1;strokeColor=none;fillColor=none;align=center;verticalAlign=middle;whiteSpace=wrap;rounded=0;shadow=0;sketch=0;strokeWidth=1;fontFamily=Times New Roman;" parent="1" vertex="1">
          <mxGeometry x="48" y="307" width="60" height="30" as="geometry" />
        </mxCell>
        <mxCell id="iNC4TQKwrpO1AQcwmITD-66" value="Ya" style="text;html=1;strokeColor=none;fillColor=none;align=center;verticalAlign=middle;whiteSpace=wrap;rounded=0;shadow=0;sketch=0;strokeWidth=1;fontFamily=Times New Roman;" parent="1" vertex="1">
          <mxGeometry x="261" y="183.5" width="60" height="30" as="geometry" />
        </mxCell>
        <mxCell id="iNC4TQKwrpO1AQcwmITD-68" value="Tidak" style="text;html=1;strokeColor=none;fillColor=none;align=center;verticalAlign=middle;whiteSpace=wrap;rounded=0;shadow=0;sketch=0;strokeWidth=1;fontFamily=Times New Roman;" parent="1" vertex="1">
          <mxGeometry x="417" y="153.5" width="60" height="30" as="geometry" />
        </mxCell>
        <mxCell id="iNC4TQKwrpO1AQcwmITD-90" value="Tidak" style="text;html=1;strokeColor=none;fillColor=none;align=center;verticalAlign=middle;whiteSpace=wrap;rounded=0;shadow=0;sketch=0;strokeWidth=1;fontFamily=Times New Roman;" parent="1" vertex="1">
          <mxGeometry x="163" y="280" width="60" height="30" as="geometry" />
        </mxCell>
        <mxCell id="HlXd1qT1jkH5dcbXWJ3G-3" value="&lt;i&gt;&lt;font face=&quot;Times New Roman&quot;&gt;&lt;b&gt;User input&lt;br&gt;&lt;/b&gt;&lt;/font&gt;&lt;/i&gt;" style="shape=parallelogram;perimeter=parallelogramPerimeter;whiteSpace=wrap;html=1;fixedSize=1;shadow=0;rounded=0;sketch=0;gradientColor=none;strokeWidth=1;" parent="1" vertex="1">
          <mxGeometry x="49.5" y="425" width="98" height="42" as="geometry" />
        </mxCell>
        <mxCell id="HlXd1qT1jkH5dcbXWJ3G-7" style="edgeStyle=orthogonalEdgeStyle;rounded=0;orthogonalLoop=1;jettySize=auto;html=1;exitX=0.5;exitY=1;exitDx=0;exitDy=0;fontFamily=Times New Roman;entryX=0.5;entryY=0;entryDx=0;entryDy=0;" parent="1" source="HlXd1qT1jkH5dcbXWJ3G-3" target="HlXd1qT1jkH5dcbXWJ3G-9" edge="1">
          <mxGeometry relative="1" as="geometry">
            <mxPoint x="97.5" y="501" as="sourcePoint" />
            <mxPoint x="99" y="539" as="targetPoint" />
          </mxGeometry>
        </mxCell>
        <mxCell id="HlXd1qT1jkH5dcbXWJ3G-9" value="&lt;b&gt;&lt;font face=&quot;Times New Roman&quot;&gt;ESP32 &lt;i&gt;input mechansism&lt;br&gt;&lt;/i&gt;&lt;/font&gt;&lt;/b&gt;" style="ellipse;whiteSpace=wrap;html=1;aspect=fixed;" parent="1" vertex="1">
          <mxGeometry x="58.5" y="492" width="80" height="80" as="geometry" />
        </mxCell>
        <mxCell id="HlXd1qT1jkH5dcbXWJ3G-10" value="&lt;b&gt;&lt;font face=&quot;Times New Roman&quot;&gt;ESP32 &lt;i&gt;input mechansism&lt;br&gt;&lt;/i&gt;&lt;/font&gt;&lt;/b&gt;" style="ellipse;whiteSpace=wrap;html=1;aspect=fixed;" parent="1" vertex="1">
          <mxGeometry x="281" y="13" width="77" height="77" as="geometry" />
        </mxCell>
        <mxCell id="HlXd1qT1jkH5dcbXWJ3G-12" style="edgeStyle=orthogonalEdgeStyle;rounded=0;orthogonalLoop=1;jettySize=auto;html=1;exitX=0.5;exitY=1;exitDx=0;exitDy=0;entryX=0.5;entryY=0;entryDx=0;entryDy=0;fontFamily=Times New Roman;entryPerimeter=0;" parent="1" source="HlXd1qT1jkH5dcbXWJ3G-10" target="iNC4TQKwrpO1AQcwmITD-12" edge="1">
          <mxGeometry relative="1" as="geometry">
            <mxPoint x="331" y="49.5" as="sourcePoint" />
            <mxPoint x="331" y="103.5" as="targetPoint" />
          </mxGeometry>
        </mxCell>
        <mxCell id="HlXd1qT1jkH5dcbXWJ3G-17" style="edgeStyle=orthogonalEdgeStyle;rounded=0;orthogonalLoop=1;jettySize=auto;html=1;exitX=0.502;exitY=1.055;exitDx=0;exitDy=0;entryX=0.5;entryY=0;entryDx=0;entryDy=0;fontFamily=Times New Roman;entryPerimeter=0;exitPerimeter=0;" parent="1" target="iNC4TQKwrpO1AQcwmITD-13" edge="1">
          <mxGeometry relative="1" as="geometry">
            <mxPoint x="634.6199999999999" y="45.30000000000007" as="sourcePoint" />
            <mxPoint x="644.4999999999998" y="187.5" as="targetPoint" />
          </mxGeometry>
        </mxCell>
        <mxCell id="HlXd1qT1jkH5dcbXWJ3G-23" value="Ya" style="text;html=1;strokeColor=none;fillColor=none;align=center;verticalAlign=middle;whiteSpace=wrap;rounded=0;shadow=0;sketch=0;strokeWidth=1;fontFamily=Times New Roman;" parent="1" vertex="1">
          <mxGeometry x="578" y="173" width="60" height="30" as="geometry" />
        </mxCell>
        <mxCell id="HlXd1qT1jkH5dcbXWJ3G-24" value="&lt;div&gt;&lt;b&gt;&lt;font face=&quot;Times New Roman&quot;&gt;&lt;i&gt;Scheduled&lt;/i&gt; &lt;/font&gt;&lt;/b&gt;&lt;i&gt;&lt;b&gt;&lt;font face=&quot;Times New Roman&quot;&gt;Switch commands&lt;/font&gt;&lt;/b&gt;&lt;/i&gt;&lt;/div&gt;" style="strokeWidth=1;html=1;shape=mxgraph.flowchart.decision;whiteSpace=wrap;" parent="1" vertex="1">
          <mxGeometry x="715" y="181" width="219" height="70" as="geometry" />
        </mxCell>
        <mxCell id="HlXd1qT1jkH5dcbXWJ3G-25" style="edgeStyle=orthogonalEdgeStyle;rounded=0;orthogonalLoop=1;jettySize=auto;html=1;exitX=1;exitY=0.5;exitDx=0;exitDy=0;exitPerimeter=0;" parent="1" source="iNC4TQKwrpO1AQcwmITD-13" target="HlXd1qT1jkH5dcbXWJ3G-24" edge="1">
          <mxGeometry relative="1" as="geometry">
            <mxPoint x="644.5" y="191" as="sourcePoint" />
            <mxPoint x="644.5" y="233" as="targetPoint" />
          </mxGeometry>
        </mxCell>
        <mxCell id="HlXd1qT1jkH5dcbXWJ3G-26" value="Tidak" style="text;html=1;strokeColor=none;fillColor=none;align=center;verticalAlign=middle;whiteSpace=wrap;rounded=0;shadow=0;sketch=0;strokeWidth=1;fontFamily=Times New Roman;" parent="1" vertex="1">
          <mxGeometry x="733" y="145" width="60" height="30" as="geometry" />
        </mxCell>
        <mxCell id="HlXd1qT1jkH5dcbXWJ3G-52" style="edgeStyle=orthogonalEdgeStyle;rounded=0;orthogonalLoop=1;jettySize=auto;html=1;" parent="1" source="HlXd1qT1jkH5dcbXWJ3G-28" edge="1">
          <mxGeometry relative="1" as="geometry">
            <mxPoint x="635" y="527" as="targetPoint" />
            <Array as="points">
              <mxPoint x="635" y="433" />
              <mxPoint x="635" y="433" />
              <mxPoint x="635" y="519" />
            </Array>
          </mxGeometry>
        </mxCell>
        <mxCell id="HlXd1qT1jkH5dcbXWJ3G-28" value="&lt;div&gt;&lt;b&gt;&lt;font face=&quot;Times New Roman&quot;&gt;&lt;i&gt;Updated states, &lt;br&gt;sensor reading&lt;/i&gt;s&lt;br&gt; pada &lt;i&gt;LCD&lt;/i&gt; 20x4&lt;br&gt;&lt;/font&gt;&lt;/b&gt;&lt;/div&gt;&lt;b&gt;&lt;font face=&quot;Times New Roman&quot;&gt;&lt;/font&gt;&lt;/b&gt;" style="shape=parallelogram;perimeter=parallelogramPerimeter;whiteSpace=wrap;html=1;fixedSize=1;shadow=0;rounded=0;sketch=0;gradientColor=none;strokeWidth=1;" parent="1" vertex="1">
          <mxGeometry x="575.5" y="296.75" width="118" height="50.5" as="geometry" />
        </mxCell>
        <mxCell id="HlXd1qT1jkH5dcbXWJ3G-32" style="edgeStyle=orthogonalEdgeStyle;rounded=0;orthogonalLoop=1;jettySize=auto;html=1;entryX=0.5;entryY=0;entryDx=0;entryDy=0;fontFamily=Times New Roman;exitX=0.5;exitY=1;exitDx=0;exitDy=0;" parent="1" source="GGrTqqdoMvf6s02qWDhr-1" target="HlXd1qT1jkH5dcbXWJ3G-28" edge="1">
          <mxGeometry relative="1" as="geometry">
            <mxPoint x="554.5" y="326" as="sourcePoint" />
            <mxPoint x="394.5" y="376" as="targetPoint" />
          </mxGeometry>
        </mxCell>
        <mxCell id="HlXd1qT1jkH5dcbXWJ3G-35" style="edgeStyle=orthogonalEdgeStyle;rounded=0;orthogonalLoop=1;jettySize=auto;html=1;entryX=0.5;entryY=0;entryDx=0;entryDy=0;fontFamily=Times New Roman;exitX=0.5;exitY=1;exitDx=0;exitDy=0;exitPerimeter=0;" parent="1" source="HlXd1qT1jkH5dcbXWJ3G-24" target="GGrTqqdoMvf6s02qWDhr-3" edge="1">
          <mxGeometry relative="1" as="geometry">
            <mxPoint x="644.5" y="279" as="sourcePoint" />
            <mxPoint x="644.5" y="306.75" as="targetPoint" />
          </mxGeometry>
        </mxCell>
        <mxCell id="HlXd1qT1jkH5dcbXWJ3G-36" value="&lt;font face=&quot;Times New Roman&quot;&gt;&lt;b&gt;Aktuator beroperasi secara manual dengan telegram commands&lt;br&gt;&lt;/b&gt;&lt;/font&gt;" style="rounded=0;whiteSpace=wrap;html=1;" parent="1" vertex="1">
          <mxGeometry x="916" y="278.5" width="129" height="58.5" as="geometry" />
        </mxCell>
        <mxCell id="HlXd1qT1jkH5dcbXWJ3G-37" value="Ya" style="text;html=1;strokeColor=none;fillColor=none;align=center;verticalAlign=middle;whiteSpace=wrap;rounded=0;shadow=0;sketch=0;strokeWidth=1;fontFamily=Times New Roman;" parent="1" vertex="1">
          <mxGeometry x="761.5" y="240" width="60" height="30" as="geometry" />
        </mxCell>
        <mxCell id="HlXd1qT1jkH5dcbXWJ3G-38" value="Tidak" style="text;html=1;strokeColor=none;fillColor=none;align=center;verticalAlign=middle;whiteSpace=wrap;rounded=0;shadow=0;sketch=0;strokeWidth=1;fontFamily=Times New Roman;" parent="1" vertex="1">
          <mxGeometry x="911" y="216" width="60" height="30" as="geometry" />
        </mxCell>
        <mxCell id="HlXd1qT1jkH5dcbXWJ3G-39" style="edgeStyle=orthogonalEdgeStyle;rounded=0;orthogonalLoop=1;jettySize=auto;html=1;exitX=1;exitY=0.5;exitDx=0;exitDy=0;exitPerimeter=0;entryX=0.5;entryY=0;entryDx=0;entryDy=0;" parent="1" source="HlXd1qT1jkH5dcbXWJ3G-24" target="HlXd1qT1jkH5dcbXWJ3G-36" edge="1">
          <mxGeometry relative="1" as="geometry">
            <mxPoint x="955" y="210" as="sourcePoint" />
            <mxPoint x="1035.48" y="245" as="targetPoint" />
          </mxGeometry>
        </mxCell>
        <mxCell id="HlXd1qT1jkH5dcbXWJ3G-41" style="edgeStyle=orthogonalEdgeStyle;rounded=0;orthogonalLoop=1;jettySize=auto;html=1;exitX=0.5;exitY=1;exitDx=0;exitDy=0;entryX=0.5;entryY=0;entryDx=0;entryDy=0;fontFamily=Times New Roman;" parent="1" source="GGrTqqdoMvf6s02qWDhr-3" target="HlXd1qT1jkH5dcbXWJ3G-43" edge="1">
          <mxGeometry relative="1" as="geometry">
            <mxPoint x="810" y="340.5" as="sourcePoint" />
          </mxGeometry>
        </mxCell>
        <mxCell id="HlXd1qT1jkH5dcbXWJ3G-42" style="edgeStyle=orthogonalEdgeStyle;rounded=0;orthogonalLoop=1;jettySize=auto;html=1;exitX=0.5;exitY=1;exitDx=0;exitDy=0;entryX=0.5;entryY=0;entryDx=0;entryDy=0;fontFamily=Times New Roman;entryPerimeter=0;" parent="1" source="HlXd1qT1jkH5dcbXWJ3G-43" target="iNC4TQKwrpO1AQcwmITD-19" edge="1">
          <mxGeometry relative="1" as="geometry">
            <mxPoint x="794" y="448.5" as="targetPoint" />
          </mxGeometry>
        </mxCell>
        <mxCell id="HlXd1qT1jkH5dcbXWJ3G-43" value="&lt;div&gt;&lt;b&gt;&lt;font face=&quot;Times New Roman&quot;&gt;&lt;i&gt;Updated states, &lt;br&gt;sensor reading&lt;/i&gt;s&lt;br&gt; pada &lt;i&gt;LCD&lt;/i&gt; 20x4&lt;br&gt;&lt;/font&gt;&lt;/b&gt;&lt;/div&gt;&lt;b&gt;&lt;font face=&quot;Times New Roman&quot;&gt;&lt;/font&gt;&lt;/b&gt;" style="shape=parallelogram;perimeter=parallelogramPerimeter;whiteSpace=wrap;html=1;fixedSize=1;shadow=0;rounded=0;sketch=0;gradientColor=none;strokeWidth=1;" parent="1" vertex="1">
          <mxGeometry x="765.5" y="363" width="118" height="50.5" as="geometry" />
        </mxCell>
        <mxCell id="HlXd1qT1jkH5dcbXWJ3G-46" style="edgeStyle=orthogonalEdgeStyle;rounded=0;orthogonalLoop=1;jettySize=auto;html=1;exitX=0.5;exitY=1;exitDx=0;exitDy=0;entryX=0.5;entryY=0;entryDx=0;entryDy=0;fontFamily=Times New Roman;" parent="1" source="HlXd1qT1jkH5dcbXWJ3G-36" target="HlXd1qT1jkH5dcbXWJ3G-48" edge="1">
          <mxGeometry relative="1" as="geometry">
            <mxPoint x="980.5" y="366" as="sourcePoint" />
          </mxGeometry>
        </mxCell>
        <mxCell id="HlXd1qT1jkH5dcbXWJ3G-47" style="edgeStyle=orthogonalEdgeStyle;rounded=0;orthogonalLoop=1;jettySize=auto;html=1;exitX=0.5;exitY=1;exitDx=0;exitDy=0;entryX=1;entryY=0.5;entryDx=0;entryDy=0;fontFamily=Times New Roman;entryPerimeter=0;" parent="1" source="HlXd1qT1jkH5dcbXWJ3G-48" target="iNC4TQKwrpO1AQcwmITD-19" edge="1">
          <mxGeometry relative="1" as="geometry">
            <mxPoint x="975" y="389" as="sourcePoint" />
            <mxPoint x="944.5" y="478.12" as="targetPoint" />
          </mxGeometry>
        </mxCell>
        <mxCell id="HlXd1qT1jkH5dcbXWJ3G-48" value="&lt;div&gt;&lt;b&gt;&lt;font face=&quot;Times New Roman&quot;&gt;&lt;i&gt;Updated states, &lt;br&gt;sensor reading&lt;/i&gt;s&lt;br&gt; pada &lt;i&gt;LCD&lt;/i&gt; 20x4&lt;br&gt;&lt;/font&gt;&lt;/b&gt;&lt;/div&gt;&lt;b&gt;&lt;font face=&quot;Times New Roman&quot;&gt;&lt;/font&gt;&lt;/b&gt;" style="shape=parallelogram;perimeter=parallelogramPerimeter;whiteSpace=wrap;html=1;fixedSize=1;shadow=0;rounded=0;sketch=0;gradientColor=none;strokeWidth=1;" parent="1" vertex="1">
          <mxGeometry x="916" y="363" width="118" height="50.5" as="geometry" />
        </mxCell>
        <mxCell id="HlXd1qT1jkH5dcbXWJ3G-53" value="&lt;b&gt;Bot&lt;br&gt;Telegram&lt;br&gt;&lt;/b&gt;" style="verticalLabelPosition=bottom;verticalAlign=top;html=1;shape=offPageConnector;rounded=0;size=0.5;" parent="1" vertex="1">
          <mxGeometry x="440" y="190" width="60" height="60" as="geometry" />
        </mxCell>
        <mxCell id="HlXd1qT1jkH5dcbXWJ3G-54" value="&lt;b&gt;Bot&lt;br&gt;Telegram&lt;br&gt;&lt;/b&gt;" style="verticalLabelPosition=bottom;verticalAlign=top;html=1;shape=offPageConnector;rounded=0;size=0.5;" parent="1" vertex="1">
          <mxGeometry x="604.5" y="6" width="60" height="60" as="geometry" />
        </mxCell>
        <mxCell id="HlXd1qT1jkH5dcbXWJ3G-55" value="&lt;b&gt;GPIO &lt;i&gt;&lt;br&gt;switch&lt;/i&gt;&lt;br&gt;&lt;/b&gt;" style="verticalLabelPosition=bottom;verticalAlign=top;html=1;shape=offPageConnector;rounded=0;size=0.5;" parent="1" vertex="1">
          <mxGeometry x="291" y="384" width="60" height="60" as="geometry" />
        </mxCell>
        <mxCell id="HlXd1qT1jkH5dcbXWJ3G-56" value="&lt;b&gt;GPIO &lt;i&gt;&lt;br&gt;switch&lt;/i&gt;&lt;br&gt;&lt;/b&gt;" style="verticalLabelPosition=bottom;verticalAlign=top;html=1;shape=offPageConnector;rounded=0;size=0.5;" parent="1" vertex="1">
          <mxGeometry x="544.5" y="380" width="60" height="60" as="geometry" />
        </mxCell>
        <mxCell id="GGrTqqdoMvf6s02qWDhr-1" value="&lt;font style=&quot;font-size: 12px;&quot; face=&quot;Times New Roman&quot;&gt;&lt;i&gt;&lt;b&gt;Print&lt;br&gt;sensor readings &lt;br&gt;in telegram chat&lt;br&gt;&lt;/b&gt;&lt;/i&gt;&lt;/font&gt;" style="rounded=0;whiteSpace=wrap;html=1;" parent="1" vertex="1">
          <mxGeometry x="583.5" y="221" width="102" height="49" as="geometry" />
        </mxCell>
        <mxCell id="GGrTqqdoMvf6s02qWDhr-3" value="&lt;font face=&quot;Times New Roman&quot;&gt;&lt;b&gt;&lt;i&gt;Aktuator beroperasi sesuai dengan schedule &lt;/i&gt;&lt;/b&gt;&lt;/font&gt;&lt;font face=&quot;Times New Roman&quot;&gt;&lt;b&gt;dengan telegram commands&lt;/b&gt;&lt;/font&gt;" style="rounded=0;whiteSpace=wrap;html=1;" parent="1" vertex="1">
          <mxGeometry x="763" y="277" width="123" height="60" as="geometry" />
        </mxCell>
      </root>
    </mxGraphModel>
  </diagram>
</mxfile>
